<svg xmlns="http://www.w3.org/2000/svg" width="24" height="24" viewBox="0 0 24 24">
  <g id="Group_3886" data-name="Group 3886" transform="translate(-4744 20301)">
    <path id="ship" d="M3.614,17.246a1,1,0,1,0,1.853-.738L4.351,13.694l6.616-1.467v4.739a1,1,0,1,0,1.993,0V12.227l6.616,1.467L18.46,16.507a1,1,0,1,0,1.853.738l1.544-3.9A1.01,1.01,0,0,0,21.15,12l-3.208-.708v-4.3a1,1,0,0,0-1-1H14.953V3a1,1,0,0,0-1-1H9.971a1,1,0,0,0-1,1V5.991H6.982a1,1,0,0,0-1,1v4.3l-3.208.688a1.01,1.01,0,0,0-.707,1.347ZM10.967,4H12.96v2H10.967ZM7.978,7.986h7.971V10.84l-3.766-.858h-.438l-3.766.858ZM20.642,19.241a4.361,4.361,0,0,0-1,.449,2.07,2.07,0,0,1-2.092,0,4.6,4.6,0,0,0-4.524,0,2.13,2.13,0,0,1-2.112,0,4.618,4.618,0,0,0-4.524,0,2.07,2.07,0,0,1-2.092,0,4.361,4.361,0,0,0-1-.449A1.028,1.028,0,0,0,2.667,21.2a2.091,2.091,0,0,1,.568.249,3.981,3.981,0,0,0,1.993.549A4.121,4.121,0,0,0,7.3,21.436a2.637,2.637,0,0,1,2.55,0,4.13,4.13,0,0,0,4.105,0,2.637,2.637,0,0,1,2.551,0,3.981,3.981,0,0,0,4.085,0,2.091,2.091,0,0,1,.568-.249,1.008,1.008,0,1,0-.518-1.946Z" 
    transform="translate(4744.041 -20301)" 
    fill="#fc9c04"/>
    <g id="Group_3885" data-name="Group 3885" transform="translate(4744 -20301)">
      <rect id="Rectangle_644" data-name="Rectangle 644" width="24" height="24" fill="none"/>
    </g>
  </g>
</svg>