<svg id="navigate_before_black_24dp" xmlns="http://www.w3.org/2000/svg" width="24" height="24" viewBox="0 0 24 24">
  <path id="Path_462" data-name="Path 462" d="M0,0H24V24H0Z" fill="none"/>
  <path id="arrows-resize-h" d="M10,6A1,1,0,0,0,9,7v4H5.41l.8-.79A1,1,0,0,0,4.79,8.79l-2.5,2.5a1.034,1.034,0,0,0,0,1.42l2.5,2.5a1,1,0,1,0,1.42-1.42L5.41,13H9v4a1,1,0,0,0,2,0V7A1,1,0,0,0,10,6Zm11.92,5.62a1,1,0,0,0-.21-.33l-2.5-2.5a1,1,0,1,0-1.42,1.42l.8.79H15V7a1,1,0,0,0-2,0V17a1,1,0,0,0,2,0V13h3.59l-.8.79a1,1,0,1,0,1.42,1.42l2.5-2.5a1.034,1.034,0,0,0,.21-1.09Z" transform="translate(-0.005)" fill="#b3b5c4"/>
</svg>
